<?xml version="1.0" encoding="UTF-8"?>
<svg xmlns="http://www.w3.org/2000/svg" xmlns:xlink="http://www.w3.org/1999/xlink" viewBox="0 0 100 100" width="100px" height="100px">
<g id="surface127005773">
<path style=" stroke:none;fill-rule:nonzero;fill:rgb(60.784316%,34.901962%,71.372551%);fill-opacity:1;" d="M 28.125 12.5 C 22.984375 12.5 18.75 16.734375 18.75 21.875 L 18.75 78.125 C 18.75 83.265625 22.984375 87.5 28.125 87.5 L 71.875 87.5 C 77.015625 87.5 81.25 83.265625 81.25 78.125 L 81.25 21.875 C 81.25 16.734375 77.015625 12.5 71.875 12.5 Z M 28.125 18.75 L 71.875 18.75 C 73.632812 18.75 75 20.117188 75 21.875 L 75 78.125 C 75 79.882812 73.632812 81.25 71.875 81.25 L 28.125 81.25 C 26.367188 81.25 25 79.882812 25 78.125 L 25 21.875 C 25 20.117188 26.367188 18.75 28.125 18.75 Z M 40.625 25 L 34.375 25.097656 C 34.375 25.097656 34.328125 53.246094 34.375 53.125 C 58.277344 41.894531 59.375 49.414062 59.375 49.414062 L 59.375 75 L 65.625 75 L 65.625 49.511719 C 65.625 33.800781 40.625 43.75 40.625 43.75 Z M 60.253906 25 C 60.253906 25 56.078125 30.761719 53.125 34.375 L 61.328125 34.375 C 65.785156 28.613281 68.75 25 68.75 25 Z M 34.375 59.375 L 34.375 74.902344 L 43.75 67.1875 Z M 34.375 59.375 "/>
</g>
</svg>
