<?xml version="1.0" encoding="UTF-8"?>
<svg xmlns="http://www.w3.org/2000/svg" xmlns:xlink="http://www.w3.org/1999/xlink" viewBox="0 0 100 100" width="100px" height="100px">
<g id="surface8415486">
<path style=" stroke:none;fill-rule:nonzero;fill:rgb(100%,56.078434%,0%);fill-opacity:1;" d="M 25 70.3125 L 48.804688 25.679688 C 49.304688 24.742188 50.660156 24.757812 51.136719 25.710938 L 59.375 42.1875 Z M 25 70.3125 "/>
<path style=" stroke:none;fill-rule:nonzero;fill:rgb(100%,62.7451%,0%);fill-opacity:1;" d="M 25 70.300781 L 33.664062 16.863281 C 33.890625 15.464844 35.769531 15.164062 36.425781 16.417969 L 53.125 48.425781 Z M 25 70.300781 "/>
<path style=" stroke:none;fill-rule:nonzero;fill:rgb(100%,43.529412%,0%);fill-opacity:1;" d="M 25.011719 70.289062 L 25.324219 70.046875 L 52.714844 47.636719 L 44.988281 32.832031 Z M 25.011719 70.289062 "/>
<path style=" stroke:none;fill-rule:nonzero;fill:rgb(100%,76.862746%,0%);fill-opacity:1;" d="M 25 70.3125 L 66.664062 30.136719 C 67.539062 29.292969 68.996094 29.789062 69.175781 30.992188 L 75 70.3125 L 51.5625 83.972656 C 50.609375 84.507812 49.449219 84.507812 48.5 83.972656 Z M 25 70.3125 "/>
</g>
</svg>
