<?xml version="1.0" encoding="UTF-8"?>
<svg xmlns="http://www.w3.org/2000/svg" xmlns:xlink="http://www.w3.org/1999/xlink" viewBox="0 0 100 100" width="100px" height="100px">
<g id="surface113529461">
<path style=" stroke:none;fill-rule:nonzero;fill:rgb(94.509804%,76.862746%,5.882353%);fill-opacity:1;" d="M 65.421875 15 C 63.769531 14.964844 61.933594 15.109375 59.890625 15.492188 C 42.707031 18.714844 36.433594 23.789062 36.175781 24.003906 C 35.832031 24.289062 35.699219 24.753906 35.835938 25.179688 C 35.972656 25.601562 36.355469 25.90625 36.800781 25.933594 L 37.574219 25.988281 L 30.800781 30.496094 C 30.390625 30.769531 30.214844 31.28125 30.371094 31.753906 L 31.464844 35.035156 C 31.574219 35.367188 31.835938 35.625 32.171875 35.730469 C 32.507812 35.839844 32.875 35.773438 33.15625 35.5625 L 36.484375 33.066406 L 36.992188 34.082031 C 37.144531 34.390625 37.429688 34.605469 37.769531 34.667969 C 38.105469 34.734375 38.449219 34.632812 38.703125 34.402344 C 40.214844 33.035156 43.914062 29.789062 46.28125 28.09375 L 22.761719 77.019531 C 22.601562 77.359375 22.621094 77.757812 22.824219 78.078125 C 23.023438 78.394531 23.375 78.585938 23.75 78.585938 L 25.441406 78.585938 L 23.78125 83.558594 C 23.621094 84.042969 23.8125 84.570312 24.242188 84.835938 C 24.421875 84.945312 24.621094 85 24.816406 85 C 25.101562 85 25.378906 84.890625 25.59375 84.679688 L 31.792969 78.480469 C 31.796875 78.476562 31.800781 78.476562 31.804688 78.472656 C 69.894531 68.636719 74.011719 54.335938 74.011719 48.636719 C 74.011719 46.035156 71.863281 43.621094 70.453125 42.316406 C 72.476562 40.871094 76.523438 37.628906 79.199219 33.164062 C 81.113281 29.972656 80.585938 24.90625 77.945312 21.109375 C 76.265625 18.691406 72.582031 15.148438 65.421875 15 Z M 65.203125 17.183594 C 71.539062 17.273438 74.71875 20.292969 76.152344 22.355469 C 78.585938 25.855469 78.574219 29.957031 77.324219 32.035156 C 73.988281 37.597656 68.128906 41.253906 68.070312 41.289062 C 67.761719 41.480469 67.570312 41.808594 67.550781 42.171875 C 67.535156 42.53125 67.695312 42.878906 67.988281 43.097656 C 69.054688 43.894531 71.824219 46.449219 71.824219 48.632812 C 71.824219 52.6875 68.886719 66.675781 31.085938 76.398438 C 31.0625 76.40625 31.042969 76.410156 31.023438 76.417969 C 30.992188 76.425781 30.960938 76.433594 30.933594 76.441406 C 30.753906 76.492188 30.589844 76.589844 30.460938 76.71875 L 27.320312 79.859375 L 27.996094 77.839844 C 28.105469 77.507812 28.046875 77.140625 27.84375 76.855469 C 27.636719 76.570312 27.308594 76.398438 26.957031 76.398438 L 25.488281 76.398438 L 49.6875 26.054688 C 49.882812 25.648438 49.8125 25.167969 49.507812 24.839844 C 49.203125 24.511719 48.726562 24.398438 48.308594 24.558594 C 47.722656 24.785156 47.203125 25.003906 46.792969 25.199219 C 44.820312 26.148438 40.398438 29.96875 38.304688 31.824219 L 37.851562 30.917969 C 37.707031 30.628906 37.441406 30.414062 37.128906 30.339844 C 36.8125 30.265625 36.476562 30.335938 36.21875 30.53125 L 33.058594 32.898438 L 32.710938 31.851562 L 41.460938 26.027344 C 41.851562 25.769531 42.03125 25.289062 41.910156 24.835938 C 41.789062 24.382812 41.398438 24.058594 40.929688 24.027344 L 40.335938 23.984375 C 43.574219 22.265625 49.863281 19.597656 60.292969 17.640625 C 62.109375 17.300781 63.742188 17.164062 65.203125 17.183594 Z M 62.4375 21.761719 C 61.429688 21.773438 60.40625 21.816406 59.402344 21.867188 L 58.96875 21.890625 C 58.371094 21.917969 57.625 22.011719 56.757812 22.171875 C 56.410156 22.234375 56.117188 22.457031 55.964844 22.773438 L 46.828125 41.871094 C 46.636719 42.269531 46.703125 42.738281 46.992188 43.066406 C 47.203125 43.304688 47.503906 43.4375 47.8125 43.4375 C 47.925781 43.4375 48.042969 43.417969 48.160156 43.378906 C 49.882812 42.808594 53.078125 41.742188 55.601562 40.898438 L 58.003906 40.097656 C 61.511719 38.929688 65.410156 37.503906 67.234375 35.402344 C 68.140625 34.359375 69.296875 32.925781 70.242188 31.414062 C 70.285156 31.4375 70.328125 31.457031 70.375 31.476562 C 70.671875 31.597656 71.277344 31.726562 71.972656 31.257812 C 73.101562 30.492188 74.011719 28.289062 74.011719 27.253906 C 74.011719 26.144531 73.109375 24.121094 72.054688 23.335938 C 71.375 22.832031 70.765625 22.910156 70.460938 23.003906 C 70.382812 23.027344 70.300781 23.058594 70.222656 23.101562 C 68.363281 21.984375 65.464844 21.730469 62.4375 21.761719 Z M 62.097656 23.957031 C 65.09375 23.90625 68.914062 24.117188 69.835938 25.675781 C 70.113281 26.144531 70.6875 26.335938 71.195312 26.128906 C 71.269531 26.097656 71.335938 26.0625 71.402344 26.015625 C 71.636719 26.484375 71.820312 27 71.820312 27.253906 C 71.820312 27.554688 71.550781 28.25 71.25 28.785156 C 70.902344 28.382812 70.4375 28.300781 70.125 28.300781 C 69.707031 28.300781 69.328125 28.539062 69.144531 28.910156 C 68.429688 30.363281 67.195312 32.109375 65.578125 33.96875 C 63.992188 35.796875 59.644531 37.246094 57.308594 38.027344 L 54.90625 38.824219 C 53.328125 39.351562 51.488281 39.96875 49.910156 40.492188 L 57.691406 24.226562 C 58.226562 24.144531 58.695312 24.09375 59.078125 24.078125 L 59.511719 24.054688 C 60.191406 24.019531 61.097656 23.972656 62.097656 23.957031 Z M 34.039062 38.8125 C 33.617188 38.792969 33.195312 39.023438 33 39.433594 C 32.738281 39.976562 32.96875 40.628906 33.511719 40.890625 L 35.484375 41.835938 C 35.636719 41.910156 35.796875 41.945312 35.957031 41.945312 C 36.363281 41.945312 36.757812 41.71875 36.945312 41.324219 C 37.207031 40.78125 36.976562 40.128906 36.429688 39.867188 L 34.457031 38.917969 C 34.324219 38.855469 34.183594 38.820312 34.039062 38.8125 Z M 31.761719 43.550781 C 31.339844 43.53125 30.917969 43.761719 30.722656 44.171875 C 30.460938 44.714844 30.691406 45.371094 31.234375 45.632812 L 33.203125 46.578125 C 33.359375 46.652344 33.519531 46.6875 33.679688 46.6875 C 34.085938 46.6875 34.476562 46.457031 34.664062 46.066406 C 34.925781 45.519531 34.699219 44.867188 34.152344 44.605469 L 32.183594 43.65625 C 32.046875 43.59375 31.90625 43.558594 31.761719 43.550781 Z M 59.570312 44.351562 C 56.140625 44.175781 51.113281 46.1875 44.125 48.984375 C 43.589844 49.199219 43.347656 49.707031 42.910156 50.632812 C 42.804688 50.855469 42.652344 51.179688 42.566406 51.328125 C 42.464844 51.425781 42.382812 51.539062 42.324219 51.671875 L 35.878906 65.957031 C 35.699219 66.351562 35.773438 66.8125 36.0625 67.136719 C 36.273438 67.375 36.570312 67.5 36.875 67.5 C 36.988281 67.5 37.101562 67.484375 37.210938 67.445312 C 43.882812 65.28125 50.171875 63.136719 53.871094 60.765625 C 57.578125 58.382812 61.566406 55.5625 63.007812 52.675781 C 64.183594 50.332031 64.839844 48.800781 64.101562 47.324219 C 63.113281 45.34375 61.628906 44.453125 59.570312 44.351562 Z M 58.84375 46.5625 C 60.472656 46.523438 61.527344 47.0625 62.148438 48.300781 C 62.402344 48.8125 61.980469 49.847656 61.054688 51.699219 C 59.6875 54.433594 54.785156 57.578125 52.691406 58.921875 C 49.652344 60.875 44.367188 62.785156 38.894531 64.59375 L 44.230469 52.761719 C 44.449219 52.496094 44.628906 52.113281 44.886719 51.570312 C 44.980469 51.378906 45.117188 51.089844 45.21875 50.902344 C 51.800781 48.269531 56.121094 46.621094 58.84375 46.5625 Z M 29.480469 48.289062 C 29.054688 48.269531 28.640625 48.503906 28.441406 48.910156 C 28.179688 49.453125 28.410156 50.109375 28.957031 50.371094 L 30.929688 51.316406 C 31.082031 51.390625 31.238281 51.425781 31.398438 51.425781 C 31.808594 51.425781 32.199219 51.195312 32.386719 50.804688 C 32.648438 50.257812 32.417969 49.605469 31.875 49.34375 L 29.902344 48.398438 C 29.765625 48.332031 29.625 48.296875 29.480469 48.292969 Z M 27.203125 53.03125 C 26.777344 53.011719 26.359375 53.242188 26.164062 53.648438 C 25.902344 54.195312 26.132812 54.847656 26.675781 55.109375 L 28.648438 56.054688 C 28.800781 56.128906 28.964844 56.164062 29.121094 56.164062 C 29.53125 56.164062 29.921875 55.9375 30.109375 55.546875 C 30.371094 55 30.140625 54.347656 29.597656 54.085938 L 27.625 53.136719 C 27.488281 53.070312 27.347656 53.039062 27.203125 53.03125 Z M 24.925781 57.769531 C 24.503906 57.75 24.085938 57.980469 23.890625 58.390625 C 23.625 58.933594 23.855469 59.589844 24.398438 59.851562 L 26.371094 60.796875 C 26.523438 60.871094 26.683594 60.90625 26.84375 60.90625 C 27.25 60.90625 27.644531 60.675781 27.832031 60.285156 C 28.09375 59.738281 27.863281 59.085938 27.316406 58.824219 L 25.347656 57.875 C 25.210938 57.8125 25.070312 57.777344 24.925781 57.769531 Z M 22.648438 62.507812 C 22.226562 62.488281 21.804688 62.722656 21.609375 63.128906 C 21.347656 63.671875 21.578125 64.328125 22.121094 64.589844 L 24.09375 65.535156 C 24.246094 65.609375 24.40625 65.644531 24.566406 65.644531 C 24.972656 65.644531 25.367188 65.414062 25.554688 65.023438 C 25.816406 64.476562 25.585938 63.824219 25.039062 63.5625 L 23.070312 62.617188 C 22.933594 62.550781 22.792969 62.515625 22.648438 62.511719 Z M 50.585938 65.316406 C 50.445312 65.320312 50.304688 65.355469 50.167969 65.421875 C 48.015625 66.453125 45.625 67.449219 43.0625 68.382812 C 42.496094 68.585938 42.203125 69.214844 42.410156 69.785156 C 42.570312 70.226562 42.988281 70.5 43.4375 70.5 C 43.5625 70.5 43.6875 70.480469 43.8125 70.4375 C 46.441406 69.484375 48.898438 68.457031 51.113281 67.394531 C 51.660156 67.132812 51.886719 66.476562 51.625 65.933594 C 51.429688 65.527344 51.011719 65.292969 50.585938 65.316406 Z M 20.371094 67.25 C 19.945312 67.230469 19.527344 67.460938 19.332031 67.871094 C 19.070312 68.414062 19.296875 69.066406 19.84375 69.328125 L 21.816406 70.273438 C 21.96875 70.347656 22.128906 70.382812 22.289062 70.382812 C 22.695312 70.382812 23.085938 70.15625 23.273438 69.761719 C 23.535156 69.21875 23.308594 68.566406 22.761719 68.304688 L 20.792969 67.355469 C 20.65625 67.289062 20.511719 67.257812 20.371094 67.25 Z M 39.503906 69.691406 C 39.363281 69.675781 39.214844 69.691406 39.074219 69.738281 C 37.921875 70.105469 36.726562 70.464844 35.480469 70.820312 C 34.902344 70.988281 34.5625 71.59375 34.730469 72.175781 C 34.867188 72.65625 35.304688 72.96875 35.78125 72.96875 C 35.878906 72.96875 35.980469 72.957031 36.082031 72.929688 C 37.351562 72.566406 38.566406 72.195312 39.738281 71.824219 C 40.3125 71.640625 40.628906 71.023438 40.445312 70.449219 C 40.308594 70.015625 39.929688 69.726562 39.503906 69.691406 Z M 39.503906 69.691406 "/>
</g>
</svg>
